<?xml version="1.0" encoding="utf-8"?>
<!-- Generator: Adobe Illustrator 17.1.0, SVG Export Plug-In . SVG Version: 6.00 Build 0)  -->
<!DOCTYPE svg PUBLIC "-//W3C//DTD SVG 1.1//EN" "http://www.w3.org/Graphics/SVG/1.1/DTD/svg11.dtd">
<svg version="1.1" id="Layer_1" xmlns="http://www.w3.org/2000/svg" xmlns:xlink="http://www.w3.org/1999/xlink" x="0px" y="0px"
	 viewBox="0 0 1422.6 300.8" enable-background="new 0 0 1422.6 300.8" xml:space="preserve">
<g>
	<path fill="#FB6060" d="M551.2,77.4c0-1.6,0-2.6,0-3.7c0-21.3,0-42.6,0-63.9c0-6.5,2.1-8.6,8.5-8.6c5.6,0,11.3,0,16.9,0
		c6.6,0,8.8,2.2,8.8,9c0,32.4,0,64.8,0,97.2c0,15.1-0.1,30.1,0,45.2c0.4,45.6-32.2,78.7-65,89c-35.9,11.3-77.3,0.8-102.5-33.4
		c-27.4-37.2-23.8-90.3,8.4-123.6c14.7-15.2,32-25.3,53.1-27.9c24.6-3.1,47.2,2.2,67.3,17.2C548,74.9,549.3,75.9,551.2,77.4z
		 M492.4,90.2c-5,0-10.3,0.3-15.5,1.9c-29.4,8.8-47.3,38.9-42,69.7c3.9,22.8,25.2,47.8,51.4,49.6c13.1,0.9,25.6-0.5,36.5-8.4
		c20.5-14.9,30-34.8,27.4-60.5C548.1,120.2,526.2,88.6,492.4,90.2z"/>
	<path fill="#FB6060" d="M34,223.6c0,1.5,0,2.6,0,3.6c0,21.7,0,43.4,0,65.1c0,6.5-2.1,8.5-8.5,8.5c-5.9,0-11.9,0-17.8,0
		c-5.1,0-7.5-2.4-7.5-7.4c0-48.9-0.5-97.9,0.2-146.8c0.4-27.5,12.5-50.1,33.1-68.2c13.4-11.8,28.9-19.5,46.7-21.7
		c28.5-3.5,54,3.5,75.4,23.3c16.8,15.6,27.1,34.7,29.9,57.5c3.3,27.4-3.4,52.3-21.1,73.7c-14.2,17.2-32,28.8-54.3,32.5
		c-26.5,4.4-50.7-1.2-72.3-17.4C36.6,225.6,35.5,224.7,34,223.6z M34.6,150.8c0,2.8,0.2,5.5,0.5,8.3c3.4,34.5,38,58.8,71.7,50.4
		c24.5-6.1,50.4-32.4,44.1-69.7c-2.1-12.5-8.3-22.9-16.9-32.1c-16.4-17.6-40-21.5-60.5-14.6C54.8,99.5,33.9,122.3,34.6,150.8z"/>
	<path fill="#FB6060" d="M601.5,150.3c0.3-27.7,10.4-50.1,28.5-69c15.6-16.1,34.9-24.8,57.2-26.1c36.4-2.1,64.9,12.6,86.2,41.7
		c7.8,10.7,11.3,23.2,14.2,35.9c1.1,4.6-0.9,7.2-5.9,8.6c-15.6,4.2-31.3,8.4-47,12.6c-29.6,7.9-59.2,15.9-88.8,23.7
		c-2.4,0.6-2.5,1.4-1.3,3.4c9.7,16.5,24.4,25.9,43,28.5c19.4,2.7,36.8-2.9,51.4-16.3c5.3-4.8,8.7-11,11.4-17.5
		c0.7-1.6,1.5-2.5,3.3-2.9c10.8-2.8,21.6-5.7,32.3-8.7c2.1-0.6,2.8-0.6,2.4,2.1c-6.1,39.2-38.2,71.3-77.6,77.3
		c-30.1,4.6-56.2-4.6-78.7-24.4C611.4,200.8,602.3,176.7,601.5,150.3z M746.3,117.1c-0.7-1.1-1.1-1.8-1.6-2.5
		c-19.2-26.8-53.1-32.9-81.2-16c-16.6,10-25.6,25.4-27.6,44.8c-0.3,3.3-0.4,3.4,3,2.5c30.2-8.1,60.5-16.2,90.7-24.3
		C735,120.1,740.5,118.6,746.3,117.1z"/>
	<path fill="#FB6060" d="M1153.4,223.1c-8.4,7-16.9,12.3-26.4,16c-35.6,13.9-78.5,2.7-103.1-26.6c-15.1-18-23-38.5-23-61.8
		c-0.1-29.6,11.5-54.2,33.8-73.7c18.4-16.1,40-23,64.1-21.6c29.9,1.7,53.7,15.1,71.5,39.1c12.1,16.3,17.2,34.6,17.1,54.8
		c-0.2,27.6-0.1,55.3-0.1,82.9c0,6.7-2.2,8.9-8.9,9c-5.6,0-11.3,0-16.9,0c-5.7,0-8.1-2.5-8.1-8.2
		C1153.4,229.9,1153.4,226.8,1153.4,223.1z M1035.7,149.9c-0.2,17.9,6.8,33,19.8,45.4c19.6,18.8,51.2,20.9,72.2,4.4
		c18.8-14.8,27.2-34.1,24.7-58.1c-3.7-35.3-37.7-59.4-72.1-50.9C1058.4,96.2,1034.9,118.6,1035.7,149.9z"/>
	<path fill="#FB6060" d="M903.6,148.6c3.8-4.9,7.6-9.8,11.4-14.7c18.2-23.6,36.4-47.2,54.6-70.8c1.9-2.5,4.3-3.6,7.4-3.6
		c8.2,0,16.4,0,24.7,0c2.9,0,5.6,0.6,7,3.5c1.4,2.8,0.3,5.3-1.5,7.6c-19.6,25.8-39,51.6-58.6,77.4c-1.5,2-1.4,3.1,0.2,5
		c21.1,25.1,42,50.3,63,75.5c0.6,0.8,1.3,1.5,1.8,2.3c2.7,3.8,1.3,9-3.3,9.5c-10.5,1.1-21.1,0.8-31.7,0.1c-2.1-0.1-3.4-1.8-4.7-3.4
		c-12.7-15.4-25.5-30.8-38.2-46.3c-3.5-4.3-7.1-8.5-10.7-13c-6.9,8.8-13.7,17.4-20.6,25.9c-0.8,1-0.6,2-0.6,3.1c0,8.5,0,17,0,25.6
		c0,6.3-2.1,8.4-8.3,8.5c-6.7,0-13.5,0-20.2,0c-5.4,0-7.7-2.4-7.7-7.8c0-75,0-150,0-224.9c0-5.7,2.3-8,7.9-8c6.3,0,12.7,0,19,0
		c6.2,0,8.5,2.3,8.5,8.7c0,45.4,0,90.7,0,136.1c0,1.2,0,2.4,0,3.5C903.1,148.4,903.4,148.5,903.6,148.6z"/>
	<path fill="#FB6060" d="M294.2,244.9c-50.3,0.5-86.8-37.9-92.7-79.9c-6.7-46.9,19.9-86.9,57.1-103.1c31.3-13.6,71.7-6.2,96.6,17.3
		c16.9,16,27.8,35.2,30.6,58.4c3.3,27.3-3.5,51.8-21.2,73.1c-14.2,17-31.7,28.4-53.7,32.6C305.2,244.5,299.5,245.1,294.2,244.9z
		 M235.4,150.9c-0.4,14.6,4.8,27.9,14.7,39.7c16.8,19.9,41.4,24.7,62.6,17.1c27.5-9.8,49.3-43.8,35.2-79.6
		c-11.8-30-38.3-44.8-70.2-36.4C257.1,97.1,234.3,119.4,235.4,150.9z"/>
	<path fill="#FB6060" d="M810.4,120.4c0-37.2,0-74.5,0-111.7c0-6.6,2-8.7,8.7-8.7c6,0,12.1,0,18.1,0c5.3,0,7.7,2.4,7.7,7.6
		c0,75.2,0,150.3,0,225.5c0,5.3-2.4,7.6-7.6,7.6c-6,0-12.1,0-18.1,0c-6.7,0-8.7-2-8.7-8.6C810.4,194.9,810.4,157.7,810.4,120.4z"/>
	<path fill="#D9D9D9" d="M1253.3,148.6c6.6-4.2,13.3-6.3,20.4-7.2c13-1.8,24.7,1.2,35.1,9c11.6,8.7,18.8,20.4,20.3,34.8
		c1.4,13.5-1.8,26-10.5,36.9c-10.4,13-24,19.2-40.2,19.1c-11.4-0.1-21.5-4.1-30.3-11.7c-9.1-7.8-15.2-17.3-17.2-29.2
		c-0.4-2.6-0.9-5.2-0.9-7.9c0-23.6,0-47.2,0-70.7c0-6.4,2.3-8.7,8.8-8.7c2.3,0,4.6,0,6.8,0c5,0,7.5,2.4,7.5,7.4c0,8.6,0,17.2,0,25.9
		C1253.3,146.9,1253.3,147.4,1253.3,148.6z M1253.8,190.9c-1.7,15,13.8,27.3,24.8,27.5c15.8,0.3,27.4-14.4,27.7-27.1
		c0.3-14.6-14.4-27.4-26.5-27.7C1266.1,163.4,1252,178.3,1253.8,190.9z"/>
	<path fill="#D9D9D9" d="M1376.6,200.1c7.6-17.7,15.1-35.1,22.4-52.6c1.4-3.4,3.7-4.7,7-4.8c3.3-0.1,6.5-0.1,9.8,0
		c5.3,0.2,8,4.3,6,9.2c-5.7,13.7-11.4,27.3-17.2,41c-6.1,14.5-12.2,28.9-18.3,43.4c-3.9,9.4-7.9,18.7-11.8,28.1
		c-0.8,2-2.1,3.4-4.2,3.8c-5,0.8-10,1.1-15-0.1c-3.5-0.8-5.3-3.8-4.1-7.2c2.8-7.7,5.6-15.4,8.9-22.9c2.2-5,2.4-9.2,0.2-14.5
		c-9.7-23.4-18.6-47-28.1-70.4c-2.7-6.7,1.1-10.8,7.1-10.5c3.7,0.2,7.5-0.4,11.2,0.4c2.2,0.5,3.5,1.7,4.3,3.6
		c6.1,15.2,12.2,30.4,18.4,45.6C1374.4,194.8,1375.4,197.3,1376.6,200.1z"/>
	<path fill="#D9D9D9" d="M1225.3,229.9c0,2,0.1,4,0,5.9c-0.1,3.2-2.2,5.4-5.4,5.5c-4.2,0.1-8.3,0.1-12.5,0c-3.1-0.1-5.2-2.3-5.2-5.3
		c-0.1-4.2-0.1-8.3,0-12.5c0.1-3.1,2.2-5.2,5.3-5.3c4.2-0.1,8.3-0.1,12.5,0c3.2,0.1,5.3,2.3,5.4,5.5
		C1225.4,225.8,1225.3,227.8,1225.3,229.9z"/>
</g>
</svg>
